<svg id="Capa_1" enable-background="new 0 0 512 512" height="512" viewBox="0 0 512 512" width="512" xmlns="http://www.w3.org/2000/svg"><g><g><path d="m408.878 504.5h-388.437c-7.147 0-12.941-5.794-12.941-12.941v-402.91c0-7.147 5.794-12.941 12.941-12.941h148.346l52.246 8.628 53.972-8.628h133.873c7.147 0 12.941 5.794 12.941 12.941v402.909c0 7.148-5.794 12.942-12.941 12.942z" fill="#eaae8e"/><path d="m423.351 75.708h-25.883c7.147 0 12.941 5.794 12.941 12.941v402.909c0 7.147-5.794 12.941-12.941 12.941h25.883c7.147 0 12.941-5.794 12.941-12.941v-402.909c0-7.147-5.794-12.941-12.941-12.941z" fill="#e39b74"/><path d="m268.801 171.985-42.376-20.652c-2.859-1.393-6.199-1.393-9.058 0l-42.376 20.652c-2.865 1.396-6.204-.69-6.204-3.878v-92.399h84.649l18.981 8.628.863 82.046c-.001 3.187-1.613 6.999-4.479 5.603z" fill="#fed402"/><g><path d="m253.436 75.708v88.789l15.365 7.488c2.865 1.396 6.204-.69 6.204-3.878v-92.399z" fill="#fac600"/></g><path d="m494.5 107.635c0-55.303-34.832-100.135-90.135-100.135s-100.135 44.832-100.135 100.135 44.832 100.135 100.135 100.135 90.135-44.832 90.135-100.135z" fill="#8ebaff"/><path d="m404.365 7.5c-4.408 0-8.749.288-13.006.84 49.158 6.376 87.129 48.4 87.129 99.295s-37.971 92.919-87.129 99.295c4.257.552 8.598.84 13.006.84 55.303 0 100.135-44.832 100.135-100.135s-44.832-100.135-100.135-100.135z" fill="#7aa3ff"/><path d="m440.291 71.188v-24.336h-71.852v24.336c0 14.51 8.607 27.002 20.989 32.672-12.383 5.67-10.989 18.162-10.989 32.672v14.336h51.852v-14.336c0-14.51 1.393-27.002-10.989-32.672 12.382-5.67 20.989-18.162 20.989-32.672z" fill="#f7f9fa"/><path d="m368.439 136.532v24.336h71.852v-24.336c0-14.51-8.607-27.001-20.989-32.672h-29.873c-12.383 5.671-20.99 18.163-20.99 32.672z" fill="#fed402"/></g><g><path d="m512 107.635c0-59.35-48.285-107.635-107.635-107.635-20.372 0-40.206 5.72-57.359 16.541-3.503 2.21-4.552 6.842-2.341 10.345 2.209 3.504 6.842 4.551 10.345 2.342 14.754-9.308 31.82-14.228 49.355-14.228 51.079 0 92.635 41.556 92.635 92.635s-41.556 92.635-92.635 92.635-92.636-41.556-92.636-92.635c0-21.17 7.325-41.868 20.626-58.28 2.607-3.218 2.113-7.941-1.105-10.549-3.219-2.61-7.941-2.112-10.549 1.104-6.938 8.562-12.464 18.131-16.462 28.297h-283.798c-11.271.001-20.441 9.171-20.441 20.442v193.442c0 4.142 3.357 7.5 7.5 7.5s7.5-3.358 7.5-7.5v-193.442c0-3 2.441-5.441 5.441-5.441h140.846v84.899c0 4.1 2.075 7.844 5.552 10.018 3.477 2.173 7.753 2.398 11.438.602l42.376-20.652c.788-.385 1.695-.385 2.485 0l42.377 20.653c1.651.805 3.42 1.203 5.183 1.203 2.173 0 4.336-.606 6.255-1.806 3.477-2.173 5.552-5.918 5.552-10.018v-18.708c0-4.142-3.357-7.5-7.5-7.5s-7.5 3.358-7.5 7.5v13.611l-37.794-18.419c-4.968-2.421-10.664-2.42-15.63 0l-37.794 18.419v-79.802h91.218v27.652c0 4.142 3.357 7.5 7.5 7.5s7.5-3.358 7.5-7.5v-27.652h17.068c-1.861 7.971-2.844 16.165-2.844 24.427 0 59.35 48.285 107.635 107.636 107.635 8.399 0 16.576-.969 24.427-2.797v279.086c0 3-2.441 5.441-5.441 5.441h-402.91c-3 0-5.441-2.441-5.441-5.441v-176.781c0-4.142-3.357-7.5-7.5-7.5s-7.5 3.358-7.5 7.5v176.781c0 11.271 9.17 20.441 20.441 20.441h402.909c11.272 0 20.441-9.17 20.441-20.441v-283.766c39.905-15.763 68.209-54.717 68.209-100.158z"/><path d="m360.939 136.532v16.989c-3.417.7-5.987 3.723-5.987 7.347 0 4.142 3.357 7.5 7.5 7.5h5.987 71.852 5.987c4.143 0 7.5-3.358 7.5-7.5 0-3.624-2.57-6.648-5.987-7.347v-16.989c0-12.673-5.576-24.543-14.842-32.672 9.266-8.129 14.842-19.999 14.842-32.672v-16.988c3.417-.7 5.987-3.723 5.987-7.347 0-4.142-3.357-7.5-7.5-7.5h-5.987-71.852-5.987c-4.143 0-7.5 3.358-7.5 7.5 0 3.624 2.57 6.648 5.987 7.347v16.989c0 12.673 5.576 24.542 14.842 32.672-9.266 8.129-14.842 19.998-14.842 32.671zm15 16.837v-16.837c0-10.576 5.946-20.288 15.258-25.172h26.337c9.312 4.884 15.258 14.596 15.258 25.172v16.837zm56.852-99.016v16.836c0 10.576-5.946 20.288-15.258 25.172h-26.337c-9.312-4.884-15.258-14.596-15.258-25.172v-16.836z"/></g></g></svg>