<svg width="34" height="38" viewBox="0 0 34 38" fill="none" xmlns="http://www.w3.org/2000/svg">
<g filter="url(#filter0_d)">
<path d="M19.5479 6.2C19.5479 5.08609 19.1182 4.0178 18.3533 3.23015C17.5885 2.4425 16.5512 2 15.4695 2C14.3879 2 13.3505 2.4425 12.5857 3.23015C11.8208 4.0178 11.3911 5.08609 11.3911 6.2V15.314L9.5287 14.264C8.77985 13.8434 7.91384 13.6991 7.07441 13.8551C6.23497 14.0112 5.47259 14.4581 4.91382 15.1219C4.35504 15.7856 4.03347 16.6261 4.00247 17.504C3.97148 18.3819 4.23292 19.2442 4.74342 19.948L12.0709 30H27.5415L29.2 16.378L19.5479 13.578V6.2ZM26.2092 18.422L25.1488 27.2H13.4303L6.91854 18.254C6.75965 18.0594 6.6747 17.8121 6.67946 17.5579C6.68422 17.3037 6.77837 17.06 6.94443 16.8719C7.11049 16.6838 7.33718 16.5641 7.58243 16.535C7.82768 16.506 8.07482 16.5696 8.278 16.714L14.1101 20.046V6.2C14.1101 5.8287 14.2533 5.4726 14.5082 5.21005C14.7632 4.9475 15.109 4.8 15.4695 4.8C15.8301 4.8 16.1758 4.9475 16.4308 5.21005C16.6857 5.4726 16.829 5.8287 16.829 6.2V15.65L26.2092 18.422Z" fill="black"/>
</g>
<defs>
<filter id="filter0_d" x="-3" y="0" width="40" height="40" filterUnits="userSpaceOnUse" color-interpolation-filters="sRGB">
<feFlood flood-opacity="0" result="BackgroundImageFix"/>
<feColorMatrix in="SourceAlpha" type="matrix" values="0 0 0 0 0 0 0 0 0 0 0 0 0 0 0 0 0 0 127 0"/>
<feOffset dy="4"/>
<feGaussianBlur stdDeviation="2"/>
<feColorMatrix type="matrix" values="0 0 0 0 0 0 0 0 0 0 0 0 0 0 0 0 0 0 0.25 0"/>
<feBlend mode="normal" in2="BackgroundImageFix" result="effect1_dropShadow"/>
<feBlend mode="normal" in="SourceGraphic" in2="effect1_dropShadow" result="shape"/>
</filter>
</defs>
</svg>
